#!OML:ASF H:\Dans Jumps\Project 1\Capture day 1\Session 1\subject.ASF
:FULLY-SPECIFIED
:DEGREES
664
root 0.0729754 17.7721 -6.34576 7.16085 -0.514725 -1.14073
lowerback -1.76587 0.0190393 -0.113383
upperback 4.2228 -0.039111 1.47372
thorax 5.35739 -0.0589783 1.58775
lowerneck -10.9756 0.292299 -1.62651
upperneck 38.4547 0.616408 0.703456
head 15.2833 0.12263 0.687742
rclavicle -1.98785e-016 -5.76476e-015
rhumerus -21.2719 -15.8401 -80.1019
rradius 20.3753
rwrist 44.69
rhand -16.9361 -24.4727
rfingers 7.12502
rthumb 9.29699 -54.2478
lclavicle -1.98785e-016 -5.76476e-015
lhumerus -18.0675 1.2242 83.8946
lradius 15.166
lwrist -8.20278
lhand -25.2377 -5.32365
lfingers 7.12502
lthumb 1.28199 24.6522
rfemur -16.0089 -2.53113 20.4502
rtibia 21.6041
rfoot -12.1979 -2.53247
rtoes 15.6328
lfemur -13.7628 6.5674 -18.8951
ltibia 17.5254
lfoot -8.87658 7.57983
ltoes 8.26144
665
root 0.0729534 17.7723 -6.3459 7.16618 -0.497411 -1.13846
lowerback -1.75914 0.021047 -0.119226
upperback 4.22848 -0.036359 1.47765
thorax 5.35945 -0.0579801 1.5953
lowerneck -10.9626 0.292159 -1.63657
upperneck 38.453 0.612376 0.720959
head 15.2793 0.122003 0.696291
rclavicle -3.37934e-015 -1.59028e-015
rhumerus -21.4247 -15.9171 -79.9222
rradius 20.5001
rwrist 44.46
rhand -16.9842 -24.4835
rfingers 7.12502
rthumb 9.25063 -54.2605
lclavicle -3.37934e-015 -1.59028e-015
lhumerus -18.2008 1.39315 83.6539
lradius 15.168
lwrist -8.29474
lhand -25.2059 -5.22212
lfingers 7.12502
lthumb 1.31272 24.7536
rfemur -16.0131 -2.53823 20.4483
rtibia 21.6028
rfoot -12.1971 -2.54107
rtoes 15.6496
lfemur -13.7694 6.56103 -18.8978
ltibia 17.5196
lfoot -8.87503 7.56915
ltoes 8.26742
666
root 0.0730172 17.7725 -6.34608 7.17298 -0.478516 -1.13373
lowerback -1.75416 0.021132 -0.128176
upperback 4.23231 -0.0360249 1.48151
thorax 5.36064 -0.0582989 1.60436
lowerneck -10.943 0.293509 -1.65356
upperneck 38.4486 0.610073 0.744358
head 15.2722 0.121907 0.708783
rclavicle 9.93923e-017 5.56597e-015
rhumerus -21.5621 -16.0022 -79.7511
rradius 20.613
rwrist 44.2343
rhand -17.0511 -24.502
rfingers 7.12502
rthumb 9.18608 -54.2819
lclavicle 9.93923e-017 5.56597e-015
lhumerus -18.3269 1.54335 83.4307
lradius 15.1774
lwrist -8.37715
lhand -25.1666 -5.10722
lfingers 7.12502
lthumb 1.35064 24.8682
rfemur -16.02 -2.54625 20.4433
rtibia 21.6033
rfoot -12.1968 -2.55097
rtoes 15.6547
lfemur -13.7762 6.55581 -18.9042
ltibia 17.5095
lfoot -8.87088 7.5556
ltoes 8.26336
667
root 0.0731692 17.7728 -6.34627 7.1807 -0.45718 -1.1271
lowerback -1.75097 0.0189259 -0.138033
upperback 4.23454 -0.0386614 1.48442
thorax 5.36126 -0.0600976 1.61275
lowerneck -10.9192 0.296174 -1.67343
upperneck 38.4436 0.609652 0.769749
head 15.2638 0.122441 0.722892
rclavicle 1.09332e-015 3.37934e-015
rhumerus -21.6848 -16.0961 -79.5897
rradius 20.7135
rwrist 44.0132
rhand -17.1378 -24.5162
rfingers 7.12502
rthumb 9.10236 -54.2998
lclavicle 1.09332e-015 3.37934e-015
lhumerus -18.4436 1.69229 83.221
lradius 15.1916
lwrist -8.46102
lhand -25.1175 -4.97583
lfingers 7.12502
lthumb 1.39807 24.9993
rfemur -16.028 -2.55671 20.4361
rtibia 21.6042
rfoot -12.1963 -2.56052
rtoes 15.6509
lfemur -13.783 6.5499 -18.9132
ltibia 17.4961
lfoot -8.86386 7.5408
ltoes 8.24972
668
root 0.0734056 17.7731 -6.34641 7.18857 -0.434469 -1.12015
lowerback -1.74867 0.0144161 -0.146613
upperback 4.23497 -0.044381 1.48649
thorax 5.3606 -0.063339 1.61934
lowerneck -10.8911 0.300541 -1.69495
upperneck 38.4374 0.611871 0.795696
head 15.2537 0.123908 0.737893
rclavicle -1.98785e-015 -1.98785e-016
rhumerus -21.7917 -16.214 -79.4347
rradius 20.7947
rwrist 43.8139
rhand -17.2403 -24.535
rfingers 7.12502
rthumb 9.00343 -54.3229
lclavicle -1.98785e-015 -1.98785e-016
lhumerus -18.5578 1.8511 83.021
lradius 15.2188
lwrist -8.54531
lhand -25.0627 -4.86761
lfingers 7.12502
lthumb 1.45101 25.1072
rfemur -16.0356 -2.56895 20.4283
rtibia 21.6048
rfoot -12.1961 -2.56958
rtoes 15.6394
lfemur -13.789 6.54314 -18.9229
ltibia 17.4812
lfoot -8.8561 7.52507
ltoes 8.23664
669
root 0.0736942 17.7734 -6.3465 7.19557 -0.411003 -1.11411
lowerback -1.7481 0.00815456 -0.15242
upperback 4.23434 -0.0525233 1.48763
thorax 5.35987 -0.0676388 1.62326
lowerneck -10.8611 0.305785 -1.71394
upperneck 38.4345 0.616167 0.817576
head 15.2448 0.126018 0.751048
rclavicle 8.94531e-016 -7.95139e-015
rhumerus -21.8832 -16.3639 -79.2839
rradius 20.854
rwrist 43.652
rhand -17.3768 -24.536
rfingers 7.12502
rthumb 8.87173 -54.3295
lclavicle 8.94531e-016 -7.95139e-015
lhumerus -18.669 2.02293 82.8299
lradius 15.2591
lwrist -8.62719
lhand -25.0275 -4.79889
lfingers 7.12502
lthumb 1.48497 25.1757
rfemur -16.0409 -2.58071 20.4213
rtibia 21.6038
rfoot -12.196 -2.57883
rtoes 15.6337
lfemur -13.7935 6.53603 -18.9313
ltibia 17.4666
lfoot -8.84929 7.50868
ltoes 8.23006
